<?xml version="1.0" encoding="utf-8"?>
<!-- Generator: Adobe Illustrator 25.2.1, SVG Export Plug-In . SVG Version: 6.00 Build 0)  -->
<svg version="1.1" id="Calque_1" xmlns="http://www.w3.org/2000/svg" xmlns:xlink="http://www.w3.org/1999/xlink" x="0px" y="0px"
	 viewBox="0 0 975.4 367.8" style="enable-background:new 0 0 975.4 367.8;" xml:space="preserve">
<style type="text/css">
	.st0{fill:#E63329;}
</style>
<g>
	<g>
		<g>
			<g>
				<path class="st0" d="M28.2,122.8c0,2.8,0.1,5.6,0.1,8.3c0,23.1,0,46.1,0,69.2c0,2.3-0.1,4.5,0.1,6.8c0.4,5.3,1.3,10.4,3.8,15.1
					c2.4,4.5,6,7.5,10.8,9.3c3.8,1.4,7.8,2,11.8,2.1c7.4,0.2,14.6-0.6,21.9-1.5c0.9-0.1,1.7-0.5,2.6-0.7c0-1,0-1.8,0-2.7
					c0-25,0-50,0-74.9c0-4.5,0.1-8.9,0-13.4c0-1.3,0.4-2.3,1.3-3.3c5.5-6.2,12.4-10.2,20.2-12.8c2-0.7,4.1-1.2,6.4-1.9
					c0.1,0.9,0.2,1.6,0.2,2.2c0,41.4,0,82.8,0,124.2c0,2.1,0,2.1-2,2.6c-4.1,0.9-8.2,2-12.4,2.8c-3.9,0.7-7.8,1.2-11.7,1.6
					c-5.2,0.6-10.3,1.2-15.5,1.4c-6.5,0.3-13,0.6-19.5-0.3c-3.6-0.5-7.3-0.8-10.8-1.7C25,252.5,15.6,248,9,239.1
					c-3.1-4.1-5.2-8.7-6.6-13.6C0.6,219.1,0,212.7,0,206.1c0-21.6,0-43.2,0-64.8c0-2,0.6-3.4,1.9-4.9c5.4-5.9,12.1-9.6,19.6-12.2
					c1.8-0.6,3.6-1.1,5.4-1.6C27.2,122.6,27.6,122.7,28.2,122.8z"/>
				<path class="st0" d="M975.4,36.1c-0.4,0.3-0.8,0.9-1.4,1.1c-2.9,1.1-5.8,2-8.6,3.1c-5.1,1.9-10.2,3.8-15.3,5.8
					c-5.7,2.2-11.4,4.4-17,6.7c-3.6,1.4-7.1,3-10.7,4.4c-1.1,0.5-1.7,1.1-1.8,2.4c-0.3,5.8-0.7,11.5-1.3,17.3
					c-0.5,4.5-1.3,8.9-2.1,13.4c-0.5,2.7-0.9,5.5-1.7,8.2c-1.1,4.1-2.4,8.1-3.8,12.1c-0.6,1.7-1.3,1.9-2.7,0.6
					c-5-4.4-10-8.9-15-13.4c-6.8-6.1-13.6-12.1-20.4-18.1c-2.9-2.6-6.4-2.9-9.8-1.4c-10,4.4-19.8,9.1-29.7,13.7
					c-11.3,5.2-22.6,10.4-33.9,15.5c-2.8,1.3-5.7,2.6-8.5,3.9c-0.3,0.1-0.5,0.4-0.8,0.4c-0.5,0-1.4,0-1.6-0.3
					c-0.3-0.4-0.3-1.3,0-1.7c0.9-1.4,1.9-2.8,2.9-4.1c11.2-15.5,23.1-30.3,36.2-44.2c9.2-9.8,19-19.1,29.4-27.7
					c11.1-9.1,22.8-17.3,35.3-24.4c5.7-3.2,11.7-5.9,17.6-8.7c2.4-1.1,3.4-0.7,4.3,1.8c0.8,2.4,1.4,4.9,2,7.4
					c1.2,5.1,2,10.3,2.5,15.6c0.1,1.1,0.6,1.6,1.6,1.7c0.7,0.1,1.5,0.2,2.2,0.2c7.3,0,14.6,1,21.9,1.7c2.7,0.2,5.5,0.9,8.2,1.4
					c3,0.5,6.1,1,9.1,1.6c3.8,0.8,7.6,1.6,11.3,2.5C974.4,34.6,975.2,34.8,975.4,36.1z"/>
				<path d="M561,157.9c-2.1-1.5-3.7-2.7-5.4-3.9c-4.6-3.3-9.6-5.9-14.9-7.6c-6.9-2.1-14.1-3-21.2-1.1c-3.9,1.1-7.1,3.2-8.9,7.1
					c-2.8,6.1-1,12.9,4.7,16.5c2.5,1.5,5.1,2.8,7.8,3.8c4.9,1.7,9.9,3,14.8,4.7c7.1,2.4,13.9,5.6,19.6,10.7c5,4.5,8.2,10.1,9.7,16.7
					c1.7,7.2,2,14.5,0.5,21.8c-1.9,9.5-7,17.1-15.3,22.4c-5.3,3.4-11.1,5.5-17.2,6.7c-6.7,1.4-13.5,1.9-20.3,1.4
					c-5.1-0.4-10.1-1.2-15.1-2.6c-4.7-1.4-9.2-3.2-13.5-5.6c-1.6-0.9-2.2-2-2.2-3.9c0.1-7.5,0-15.1,0-22.6c0-0.8,0.1-1.5,0.2-2.6
					c2,1.3,3.7,2.4,5.3,3.6c4.9,3.4,10.2,6,15.8,7.7c4.8,1.5,9.7,2.1,14.7,2c3.7-0.1,7.3-0.4,10.8-1.6c5.3-1.9,9-5.2,9.8-10.9
					c0.9-6.1-1.4-10.9-6.6-14.2c-4-2.5-8.4-4-12.9-5.3c-6.6-2-13.3-3.9-19.4-7.2c-7.3-3.8-13.5-9-16.8-16.8
					c-1.6-3.6-2.5-7.4-2.9-11.4c-0.3-3.8-0.4-7.6,0-11.4c0.9-8.8,4.5-16.4,10.9-22.5c5.4-5.2,11.9-8.2,19.1-10
					c6.6-1.7,13.3-2,20.1-1.4c9.2,0.9,18,3.4,26.1,8.2c1.6,1,2.4,2,2.3,4c-0.1,7.5-0.1,15.1-0.1,22.6C561,155.9,561,156.6,561,157.9
					z"/>
				<path d="M865.3,225.9c0.1,0.9,0.2,1.6,0.2,2.2c0,6,0,12,0,18c0,1.5-0.4,2.4-1.8,3.2c-3.7,2.2-7.7,3.8-11.8,5.1
					c-4.9,1.6-10,2.2-15.1,2.7c-5.1,0.4-10.2,0.6-15.3-0.3c-3-0.5-5.9-0.8-8.8-1.6c-15-4.2-25.9-13.2-31.5-28
					c-1.6-4.2-2.5-8.5-3.1-12.9c-0.5-3.5-0.7-7-0.5-10.5c0.7-12,3.5-23.3,11.1-33c6-7.6,13.6-12.7,22.9-15.4
					c7.5-2.2,15.2-2.5,22.8-1.4c9.2,1.3,17.3,4.9,23.5,12.1c3.7,4.3,6.2,9.3,7.9,14.7c2.1,6.6,2.6,13.5,2.7,20.3c0.1,3,0,6,0,9
					c0,2.6,0,2.7-2.8,2.7c-7.3,0-14.5,0-21.8,0c-12.6,0-25.2,0-37.8,0c-2.9,0-2.8,0-2.2,2.7c1.9,8,7.2,12.9,14.4,16.1
					c5.3,2.3,10.9,3.3,16.7,2.9c8.3-0.5,16.5-1.9,24.1-5.8c1.5-0.8,3-1.5,4.5-2.2C864.1,226.2,864.5,226.1,865.3,225.9z M844,196.4
					c-0.4-2.3-0.6-4.2-1-6.1c-0.7-3.7-2.2-7-4.8-9.9c-5.2-5.6-15.7-6.5-22.8-2.5c-4.9,2.7-7.9,7-9.8,12.1c-0.8,2-1.7,4-1.4,6.4
					C817.4,196.4,830.5,196.4,844,196.4z"/>
				<path class="st0" d="M221.6,254.9c-0.9,0.1-1.7,0.2-2.4,0.2c-7.3,0-14.5,0-21.8,0c-2.5,0-2.5,0-2.5-2.6c0-18.4,0-36.8,0-55.1
					c0-2.2-0.1-4.4-0.3-6.6c-0.6-6.5-4.9-11.3-11.1-12.7c-4.5-1-9-0.9-13.5-0.1c-2.9,0.5-5.7,1-8.6,1.6c-0.9,0.2-1.7,0.6-2.7,1
					c0,24.8,0,49.5,0,74.1c-2,0.5-24.3,0.5-26.4,0c0-0.7-0.1-1.5-0.1-2.3c0-29.3,0-58.6,0-87.9c0-2.4,0-2.5,2.3-3.2
					c4.2-1.3,8.5-2.7,12.8-3.7c4.4-1.1,8.8-2.2,13.3-2.8c8.3-1,16.7-1.9,25.2-1.2c5.3,0.4,10.6,1.3,15.6,3.2
					c8.6,3.3,14.6,9.3,17.7,18.1c2.1,5.9,2.7,12,2.7,18.1c0.1,19.9,0,39.8,0,59.8C221.7,253.4,221.7,254,221.6,254.9z"/>
				<path d="M634.3,195.7c0.1-3.8,0.6-7.5-0.8-11c-1.6-3.9-4.7-6-8.6-7.2c-5.1-1.6-10.3-1.3-15.5-0.7c-6.6,0.8-12.7,3.1-18.5,6.2
					c-0.3,0.2-0.6,0.4-0.9,0.6c-0.4,0.2-0.8,0.3-1.4,0.6c-0.1-0.5-0.4-0.9-0.4-1.4c0-6.6,0-13.2,0-19.8c0-1.1,0.4-1.8,1.5-2.4
					c4.6-2.4,9.4-4.1,14.5-5.3c8.7-2,17.4-2.5,26.2-1.4c7.8,1,15.2,3.3,21.1,9c4.2,4,6.7,9,8,14.5c1.1,4.7,1.4,9.4,1.4,14.2
					c0,19.5,0,39,0,58.5c0,0.6,0,1.2,0,1.8c0,1.1-0.5,1.6-1.6,1.7c-5.4,0.8-10.8,1.8-16.2,2.4c-5.7,0.6-11.5,1.2-17.3,1.3
					c-4.9,0.1-9.8-0.2-14.7-0.8c-6.7-0.8-13.2-2.5-19-6c-5.2-3.1-9-7.4-11-13.1c-1.9-5.5-2.1-11.2-1.1-16.9
					c1.1-5.9,3.8-10.8,8.3-14.7c3.9-3.4,8.5-5.5,13.5-6.9c7.7-2.3,15.5-2.7,23.5-2.8c2.5,0,5,0,7.5,0
					C633.1,195.9,633.6,195.8,634.3,195.7z M634.4,213.1c-3.6,0-6.8,0-10,0c-3.6,0-7.1,0.4-10.5,1.6c-2.7,0.9-5.1,2.4-6.6,5
					c-1.2,2.1-1.4,4.4-1.2,6.8c0.3,3.4,1.9,6,4.7,7.9c3.2,2.1,6.8,2.6,10.4,2.9c3.5,0.3,7,0,10.5-0.6c2.8-0.5,2.8-0.3,2.8-3
					c0-6.1,0-12.1,0-18.2C634.4,214.9,634.4,214.2,634.4,213.1z"/>
				<path d="M441.4,195.9c-0.2-3.7,0.4-7.1-0.7-10.4c-1.1-3.4-3.5-5.7-6.6-7.2c-2.4-1.1-4.9-1.7-7.6-1.8c-4.9-0.3-9.8,0-14.6,1.1
					c-4.2,1-8.4,2.5-12.3,4.5c-1.3,0.7-2.6,1.3-4.1,2.2c-0.2-0.8-0.3-1.3-0.3-1.8c0-6.4,0-12.9,0-19.3c0-1.2,0.4-1.9,1.6-2.6
					c4.6-2.4,9.5-4.1,14.5-5.3c8.6-2,17.4-2.5,26.2-1.4c6.6,0.8,13,2.7,18.5,6.8c4.3,3.2,7.3,7.4,9.3,12.4c2.2,5.5,2.6,11.2,2.7,17
					c0.1,20.1,0,40.1,0,60.2c0,0.5,0,1,0,1.5c-0.1,1-0.6,1.5-1.7,1.7c-5.4,0.8-10.8,1.8-16.2,2.4c-7.1,0.8-14.1,1.6-21.2,1.3
					c-7.1-0.3-14.2-0.8-21-3c-6.2-2-11.8-5-15.9-10.2c-3-3.8-4.6-8.1-5.1-12.8c-0.6-4.9-0.3-9.7,1.3-14.5c1.9-5.7,5.4-10,10.2-13.2
					c4.1-2.7,8.7-4.4,13.5-5.5c7.3-1.7,14.6-2,22-2C436.2,195.9,438.6,195.9,441.4,195.9z M441.3,213.3c-0.5-0.1-0.7-0.2-1-0.2
					c-5,0.1-9.9-0.3-14.9,0.6c-2.6,0.4-5,1.1-7.2,2.3c-5.1,2.9-6,7.9-4.5,13.3c0.9,3.3,3.5,5.3,6.6,6.5c1.6,0.6,3.4,0.7,5.1,1.2
					c3.4,0.9,6.8,0.6,10.3,0.3c1.9-0.1,3.7-0.6,5.7-0.9C441.3,228.7,441.3,221.1,441.3,213.3z"/>
				<path d="M296.6,255c0-1,0-1.8,0-2.6c0-37.2,0-74.4,0-111.6c0-1.7,0.5-3,1.6-4.3c5.5-5.9,12.2-9.8,19.8-12.3c1.6-0.5,3.3-1,5-1.5
					c1-0.3,1.5,0,1.6,1.1c0.1,0.6,0,1.2,0,1.8c0,33.9,0.1,67.8,0.1,101.7c0,0.9,0,1.9,0,3.1c17.2,0,34.1,0,50.9,0
					c0.6,2,0.7,22.4,0.1,24.6C349.5,255,323.2,255,296.6,255z"/>
				<path d="M760.5,124.8c0,43.5,0,86.8,0,130c-1.8,0.5-23.8,0.5-26.4,0.1c0-0.7-0.1-1.4-0.1-2.1c0-37,0-74,0-111
					c0-1.4,0.4-2.5,1.3-3.5c4.1-4.6,9.1-8,14.7-10.3c2.7-1.1,5.5-1.9,8.2-2.8C759,124.9,759.7,124.9,760.5,124.8z"/>
				<path d="M709.7,255c-9,0-17.6,0-26.5,0c-0.1-0.9-0.1-1.6-0.1-2.3c0-37,0-73.9,0-110.9c0-1.4,0.5-2.4,1.4-3.5
					c4.4-5,9.9-8.5,16.1-10.9c2.8-1.1,5.7-2.1,8.6-2.6c0.2,0.1,0.3,0.2,0.4,0.2c0.1,0,0.1,0.1,0.1,0.2c0,0.5,0.1,1,0.1,1.5
					C709.7,169.3,709.7,212,709.7,255z"/>
				<path class="st0" d="M270.6,156c0.5,2.7,0.4,97.2-0.1,99c-8.5,0-17,0-25.8,0c-0.1-0.8-0.2-1.5-0.2-2.2c0-26.6,0-53.2,0-79.8
					c0-1.6,0.5-2.8,1.6-3.9c4.5-4.8,9.9-8.3,16.1-10.6C264.8,157.4,267.6,156.5,270.6,156z"/>
				<path class="st0" d="M257.5,141.1c-9,0.2-16-7.6-15.7-16.1c0.4-9.5,7.2-16,16.1-15.9c9,0.1,15.8,7,15.8,16.5
					C273.7,134,266.4,141.4,257.5,141.1z"/>
				<path class="st0" d="M852.5,31.8c-0.6,0.5-1.2,1-1.8,1.4c-9.5,6.4-18.4,13.5-27,21.1c-1.4,1.2-2.5,1.6-4.4,0.8
					c-5.1-2.1-10.3-3.8-15.5-5.7c-2.9-1-5.8-2-8.7-2.9c-0.7-0.2-1.4-0.5-1.3-1.2c0.1-0.4,0.7-0.9,1.1-1.1c2.3-0.8,4.7-1.5,7.1-2.2
					c4.7-1.3,9.4-2.6,14.1-3.7c4-1,8.1-1.7,12.2-2.5c2.9-0.6,5.8-1.2,8.8-1.8c2.6-0.5,5.2-0.8,7.8-1.3c2.4-0.4,4.9-0.8,7.3-1.3
					C852.3,31.5,852.4,31.7,852.5,31.8z"/>
			</g>
		</g>
		<g>
			<path d="M497.7,366.6l20.4-64.4l4.4-15.3l19.2-1.1l24.4,80.8h-14.7l-5.4-18.8h-29l-5.4,18.8H497.7z M519.4,339.8h24.5l-12.1-42.5
				h-0.1L519.4,339.8z"/>
			<path d="M575.8,366.6v-46.3l-1.1-14.9l15.8-1.2v10.4c4.4-6.6,11.6-10.4,18.8-10.4c7.8,0,13.1,4.5,15.1,11.7
				c4.5-7.5,12.2-11.7,19.8-11.7c10.4,0,16,7.8,16,19.1v43.3h-14.7v-39.8c0-8.2-3.3-12.2-8.7-12.2c-3.7,0.1-8.1,2.1-11.6,5.8
				c0.1,1,0.1,2,0.1,2.9v43.3h-14.7v-39.8c0-8.2-3.3-12.2-8.7-12.1c-3.7,0-8,1.8-11.5,5.5v46.4H575.8z"/>
			<path d="M681.8,294c-4.8,0-8.1-2.8-8.1-7.3c0-5,3.9-8.9,9.5-8.9c4.7,0,8,2.7,8,7.5C691.2,290.6,687,294,681.8,294z M674.9,366.6
				v-46.1l-1.1-15.1l15.8-1.2v62.4H674.9z"/>
			<path d="M731.2,367.8c-18.1,0-30.5-10.6-30.5-31.1c0-20.6,12.5-32.6,28.3-32.6c14.2,0,23.6,9.3,23.6,22.9c0,2.4-0.2,5.3-0.6,8
				l-1.2,2.1H716c0.9,13.5,7,20.1,19,20.1c5.6,0,11.1-1.6,14.9-3.4l-0.2,10.4C745.8,366.1,738.4,367.8,731.2,367.8z M715.9,332.4
				l22.3-0.9c0.1-1.8,0.2-3.5,0.2-5.3c0-8.8-3.5-14.2-9.9-14.2C720.9,312.1,715.9,320.2,715.9,332.4z"/>
			<path d="M764.1,366.6v-46.3l-1.1-14.9l15.8-1.2v10.4c4.5-6.6,11.7-10.4,19.8-10.4c10.8,0,16.4,7.8,16.4,19.1v43.3h-14.7v-39.8
				c0-8.2-3.3-12.2-9.4-12.2c-4.2,0-8.4,2-12.1,5.6v46.4H764.1z"/>
			<path d="M845,367.8c-7,0-15.1-1.6-20.3-3.8l1-12c4.9,3.1,12.7,5.5,19.2,5.5c6.9,0,10.2-3.1,10.2-7.2c0-5.8-6.7-7.8-14.3-11.5
				c-7.6-3.5-14.4-8-14.4-16.9c0-10.6,10-17.7,24.7-17.7c6.1,0,12.1,1.2,17,3.3l-1,11.9c-4.9-2.8-11.1-5-16.5-5
				c-6,0-9.7,3.2-9.7,7.5c0,5.3,6.2,8,12.1,10.6c8,3.7,16.5,8.2,16.5,18C869.5,360.6,860.7,367.8,845,367.8z"/>
		</g>
	</g>
</g>
</svg>
